<?xml version="1.0" encoding="UTF-8"?>
<svg id="Layer_2" xmlns="http://www.w3.org/2000/svg" viewBox="0 0 352.84 771.98">
  <defs>
    <style>
      .cls-1 {
        fill: #fcfcfc;
      }
    </style>
  </defs>
  <g id="Layer_1-2" data-name="Layer_1">
    <path class="cls-1" d="M345.2,207.32c3.34-3.37,5.09-8.33,7.49-12.61.26-.47.14-1.4-.16-1.9-2.61-4.34-4.58-9.33-8.06-12.83-57.12-57.42-114.39-114.69-171.81-171.8-3.6-3.58-8.63-5.9-13.32-8.11-1.05-.49-3.97,1.58-5.12,3.14-.92,1.26-.63,3.52-.61,5.34.15,13.48.53,26.96.52,40.44-.05,56.49-.22,112.97-.35,169.45-.02,7.82-.05,15.64-.08,23.46,0,2.33-.45,5.24-3.37,3.77-3.73-1.88-7.14-4.7-10.11-7.69-2.87-2.9-4.63-6.89-7.51-9.79-33.81-34.06-67.72-68.02-101.69-101.93-1.26-1.26-3.33-1.72-5.01-2.55-.57,1.79-1.62,3.58-1.63,5.38-.1,15.5-.1,31,.07,46.49.08,7.23.09,12.87,2.33,19.85,1.91,5.97,4.69,11.51,9.13,16.02,34.61,35.14,69.61,69.91,104.55,104.73,1.96,1.95,4.89,2.97,6.68,5.02,2.5,2.87,6.08,6.23,6.19,9.49.55,15.78.23,31.6-.16,47.39-.06,2.3-1.68,5.24-3.52,6.57-1.16.84-4.32-.33-6.15-1.37-2.25-1.28-4.22-3.2-6.02-5.12-3.76-4.01-7.13-8.38-10.99-12.27-31.72-31.91-63.51-63.75-95.32-95.57-1.82-1.82-4.06-3.22-6.34-4.99-.38,1.03-.67,1.47-.67,1.9.07,18,.16,35.99.26,53.99.03,6.09,1.76,11.82,3.1,17.74s3.36,11.37,7.58,15.65c31.13,31.55,62.64,62.73,94.1,93.95,4.58,4.54,4.76,10.43.07,14.78-2.56,2.38-5.14,4.75-7.61,7.22-37.97,37.92-75.99,75.79-113.77,113.89-3.35,3.38-5.18,8.28-7.64,12.52-.29.49-.32,1.43-.04,1.91,2.43,4.25,4.23,9.19,7.58,12.56,46.16,46.46,92.48,92.75,138.92,138.94,7.31,7.27,13.55,15.77,23.73,19.99,5.19,2.15,9.38,2.56,13.5-1.56,3.42-3.42,6.79-6.87,10.21-10.29,50.33-50.3,100.71-100.55,150.86-151.03,3.04-3.06,5.73-7.93,5.82-12.02.08-3.67-2.96-8.12-5.83-11.01-43.93-44.21-88.06-88.22-132.15-132.27-2.48-2.47-4.71-5.33-7.57-7.24-4.58-3.05-6.25-7.42-6.34-12.35-.28-15.33-.29-30.66-.18-45.98.01-1.46,1.33-3.68,2.57-4.15,1.34-.5,3.75.13,4.91,1.16,6.95,6.15,13.87,12.35,20.44,18.9,39.74,39.68,79.37,79.47,119.07,119.19,1.62,1.62,3.6,2.87,6.8,5.37,0-3.83,0-6.1,0-8.37-.02-14.16-.03-28.33-.08-42.49-.03-9.34,1.24-18.87-3.99-27.47-2.55-4.18-4.35-9.09-7.7-12.47-34.47-34.82-69.18-69.39-103.84-104.02q-8.29-8.28-.16-16.36c36.2-36.15,72.46-72.25,108.46-108.59ZM152.4,557.08c-.55,12.97-.14,25.98-.14,38.98h.03c0,15.66-.1,31.32.07,46.98.04,4.03-1.04,7.05-4.34,9.45-1.72,1.25-3.01,3.08-4.52,4.64-3.8,3.92-6.29,3.9-10.11.04-14.76-14.92-29.54-29.83-44.31-44.73-1.17-1.18-2.35-2.36-3.59-3.48-7.48-6.75-7.18-14.9.07-22.06,17.19-16.97,34.16-34.15,51.07-51.4,2.99-3.05,4.57-2.45,7.75.01,7.39,5.71,8.39,12.97,8.02,21.56ZM200.68,563.67c.03-1.43.28-2.86.61-4.29-.03-.06-.05-.14-.04-.22.15-3.42.41-6.84.44-10.27-.5-2.53,1.75-4.12,3.88-5.99,9.37-8.26,9.25-8.27,18.25.71,15.2,15.16,30.47,30.25,45.75,45.34,4.15,4.1,4.16,14,.04,18.11-16.61,16.57-33.21,33.15-49.72,49.83-2.63,2.66-4.39,2.42-7.05-.06-4.91-4.57-8.61-9.9-11.29-15.94-.77-1.74-.94-3.85-.95-5.79-.08-12.32-.04-24.64-.04-36.95h.02c0-11.49-.15-22.98.1-34.46ZM216.49,256.21c-3.06,3.13-4.62,2.97-8.09.23-7.16-5.65-8.09-12.66-7.97-21.09.41-28.48.23-56.97.06-85.46-.03-4.54,1.22-7.74,4.76-10.78,9.76-8.37,9.56-8.48,18.67.59,15.22,15.17,30.62,30.16,45.67,45.49,2.06,2.09,2.59,5.68,3.84,8.57-.16,4.88-2.3,7.73-5.42,10.79-17.35,17.04-34.5,34.29-51.52,51.65Z"/>
  </g>
</svg>